:SAMPLES-PER-SECOND 30
:FULLY-SPECIFIED
:DEGREES
180
root  0.4673111157 38.17800086 -1.925713246 -0.5390014648 -10.51600647 7.755004883
lowerback  15.92580032 -2.09236002 -9.521889687
upperback  6.78621006 -4.182769775 -0.9119099975
thorax  -1.012709975 -2.275820017 5.060349941
lowerneck  1.708130002 -2.45468998 -11.61130047
upperneck  6.979440212 -3.918580055 10.97949982
head  2.209290028 -2.017090082 5.174240112
lclavicle  0 -9.442270133e-015 7.951389973e-016
lhumerus  18.7696991 -24.29240036 81.67389679
lradius  1.772229929e-031 -3.054184853e-031 120.125
lwrist  -1.412450015e-030 -0 16.16090012
lhand  -1.496451383e-031 -27.76390076 20.11240005
lfingers  90 7.125020027 -90
lthumb  89.89689403 5.08795885 91.16245106
rclavicle  0 -9.442270133e-015 7.951389973e-016
rhumerus  9.449640274 5.808650017 -73.77400208
rradius  -2.216361015e-031 2.74892486e-031 128.878006
rwrist  7.062250077e-031 -1.765562519e-031 -14.58430004
rhand  -7.920061211e-032 -33.2840004 9.303460121
rfingers  -90 -7.125020027 -90
rthumb  -92.93752616 -24.25625642 -97.11982154
rfemur  -44.10169983 24.48810005 -13.82349968
rtibia  -0 0 34.42169952
rfoot  -4.415346888e-032 1.463649988 -6.201819897
rtoes  5.373923086 19.29304026 -105.8922705
lfemur  -3.914690018 9.014519691 -14.51280022
ltibia  -0 0 53.91009903
lfoot  4.556587565e-032 -14.37609959 3.36736989
ltoes  -4.250644065 -19.5611806 -102.515957
181
root  0.6781888759 38.39800076 -2.192746748 -0.6649932861 -12.90100098 7.878005981
lowerback  15.81659985 -1.710659981 -9.572779655
upperback  6.904819965 -3.684959888 -1.035580039
thorax  -0.9099439979 -2.040580034 4.876430035
lowerneck  1.269209981 -2.237099886 -11.47039986
upperneck  7.290569782 -3.589629889 10.77079964
head  2.329829931 -1.843610048 5.088439941
lclavicle  0 -9.442270133e-015 7.951389973e-016
lhumerus  18.29179955 -23.68659973 81.68979645
lradius  1.779368167e-031 -3.050031633e-031 120.2590027
lwrist  -7.062250077e-031 -0 15.95790005
lhand  -1.496451383e-031 -27.76390076 20.11240005
lfingers  90 7.125020027 -90
lthumb  89.89689403 5.08795885 91.16245106
rclavicle  0 -9.442270133e-015 7.951389973e-016
rhumerus  10.68729973 6.699120045 -74.62740326
rradius  -2.213528875e-031 2.751205909e-031 128.8190002
rwrist  7.062250077e-031 -3.531125038e-031 -14.39789963
rhand  -7.920061211e-032 -33.2840004 9.303460121
rfingers  -90 -7.125020027 -90
rthumb  -92.93752616 -24.25625642 -97.11982154
rfemur  -44.07720184 23.54949951 -12.63619995
rtibia  -0 0 33.59579849
rfoot  -4.415455567e-032 1.517840028 -6.009230137
rtoes  5.373923086 19.29304026 -105.8922705
lfemur  -4.277999878 10.16219997 -14.6953001
ltibia  -0 0 54.1515007
lfoot  4.517887468e-032 -12.31639957 1.777850032
ltoes  -4.250644065 -19.5611806 -102.515957
182
root  0.8632778183 38.57688904 -2.472444407 -0.7089996338 -15.27099609 7.604995728
lowerback  15.79570007 -1.329959989 -9.411840439
upperback  6.921460152 -3.168879986 -0.9873059988
thorax  -0.968535006 -1.783439994 4.762879848
lowerneck  1.083269954 -1.980739951 -11.53859997
upperneck  7.433129787 -3.228970051 10.67679977
head  2.361310005 -1.664450049 5.078050137
lclavicle  0 -9.442270133e-015 7.951389973e-016
lhumerus  17.99650002 -22.88750076 81.72119904
lradius  1.786390003e-031 -3.045924293e-031 120.3909988
lwrist  -7.062250077e-031 -0 16.12890053
lhand  -1.496451383e-031 -27.76390076 20.11240005
lfingers  90 7.125020027 -90
lthumb  89.89689403 5.08795885 91.16245106
rclavicle  0 -9.442270133e-015 7.951389973e-016
rhumerus  11.69810009 7.595009804 -75.36509705
rradius  -2.219669886e-031 2.746253745e-031 128.9470062
rwrist  1.412450015e-030 -0 -14.40709972
rhand  -7.920061211e-032 -33.2840004 9.303460121
rfingers  -90 -7.125020027 -90
rthumb  -92.93752616 -24.25625642 -97.11982154
rfemur  -44.06760025 22.45190048 -10.59500027
rtibia  -0 0 33.74290085
rfoot  -4.414577168e-032 0.9988899827 -5.839739799
rtoes  5.373923086 19.29304026 -105.8922705
lfemur  -4.899380207 11.22850037 -14.35560036
ltibia  -0 0 54.71530151
lfoot  4.76416437e-032 -10.13829994 0.119156003
ltoes  -4.250644065 -19.5611806 -102.515957
183
root  1.032544403 38.72177845 -2.767244474 -0.7010040283 -17.31599426 7.173995972
lowerback  15.86670017 -1.043230057 -9.156709671
upperback  6.914869785 -2.77057004 -0.8818889856
thorax  -1.083699942 -1.580019951 4.677509785
lowerneck  1.002699971 -1.741850019 -11.61610031
upperneck  7.491360188 -2.897049904 10.58740044
head  2.354170084 -1.502529979 5.070859909
lclavicle  0 -9.442270133e-015 7.951389973e-016
lhumerus  17.89080048 -22.09569931 81.68930054
lradius  1.798761896e-031 -3.038634509e-031 120.6240005
lwrist  -1.412450015e-030 -0 16.40859985
lhand  -1.496451383e-031 -27.76390076 20.11240005
lfingers  90 7.125020027 -90
lthumb  89.89689403 5.08795885 91.16245106
rclavicle  0 -9.442270133e-015 7.951389973e-016
rhumerus  12.70540047 8.464579582 -76.04799652
rradius  -2.222352959e-031 2.744082973e-031 129.003006
rwrist  1.412450015e-030 -1.765562519e-031 -14.06569958
rhand  -7.920061211e-032 -33.2840004 9.303460121
rfingers  -90 -7.125020027 -90
rthumb  -92.93752616 -24.25625642 -97.11982154
rfemur  -44.04560089 21.21349907 -8.196700096
rtibia  -0 0 34.78960037
rfoot  -4.413986714e-032 0.3458540142 -6.090119839
rtoes  5.373923086 19.29304026 -105.8922705
lfemur  -5.785980225 11.95689964 -13.83049965
ltibia  -0 0 55.56370163
lfoot  5.566216006e-032 -7.595089912 -1.544020057
ltoes  -4.250644065 -19.5611806 -102.515957
184
root  1.196186655 38.83244372 -3.064377852 -0.7400054932 -18.86099243 6.994995117
lowerback  15.96949959 -0.8733010292 -9.002129555
upperback  6.883009911 -2.545880079 -0.9073950052
thorax  -1.21626997 -1.46036005 4.535459995
lowerneck  0.9019730091 -1.537799954 -11.53859997
upperneck  7.646190166 -2.621639967 10.55210018
head  2.383409977 -1.363299966 5.053450108
lclavicle  0 -9.442270133e-015 7.951389973e-016
lhumerus  17.80419922 -21.48769951 81.46260071
lradius  1.810363306e-031 -3.031736917e-031 120.8430023
lwrist  -7.062250077e-031 -0 16.4776001
lhand  -1.496451383e-031 -27.76390076 20.11240005
lfingers  90 7.125020027 -90
lthumb  89.89689403 5.08795885 91.16245106
rclavicle  0 -9.442270133e-015 7.951389973e-016
rhumerus  13.60779953 9.093179703 -76.78160095
rradius  -2.228190612e-031 2.739344928e-031 129.125
rwrist  0 -3.531125038e-031 -13.80049992
rhand  -7.920061211e-032 -33.2840004 9.303460121
rfingers  -90 -7.125020027 -90
rthumb  -92.93752616 -24.25625642 -97.11982154
rfemur  -43.87490082 19.75810051 -6.095779896
rtibia  -0 0 36.6053009
rfoot  -0 -0.2581590116 -6.904540062
rtoes  5.373923086 19.29304026 -105.8922705
lfemur  -6.922739983 12.10140038 -13.65149975
ltibia  -0 0 56.59740067
lfoot  4.43263934e-032 -5.269430161 -2.960510015
ltoes  -4.250644065 -19.5611806 -102.515957
185
root  1.351937816 38.8882224 -3.368622112 -0.7140045166 -20.0269928 6.914001465
lowerback  15.98989964 -0.7951350212 -8.886090279
upperback  6.821060181 -2.438659906 -0.9687690139
thorax  -1.319069982 -1.398970008 4.391499996
lowerneck  0.7921760082 -1.405629992 -11.37139988
upperneck  7.78455019 -2.440759897 10.49339962
head  2.419080019 -1.268700004 5.01128006
lclavicle  0 -9.442270133e-015 7.951389973e-016
lhumerus  17.71500015 -20.92020035 81.20629883
lradius  1.816127691e-031 -3.028287345e-031 120.9520035
lwrist  -1.412450015e-030 1.765562519e-031 16.46019936
lhand  -1.496451383e-031 -27.76390076 20.11240005
lfingers  90 7.125020027 -90
lthumb  89.89689403 5.08795885 91.16245106
rclavicle  0 -9.442270133e-015 7.951389973e-016
rhumerus  14.40240002 9.44892025 -77.56469727
rradius  -2.243740904e-031 2.726622598e-031 129.451004
rwrist  7.062250077e-031 -0 -13.90040016
rhand  -7.920061211e-032 -33.2840004 9.303460121
rfingers  -90 -7.125020027 -90
rthumb  -92.93752616 -24.25625642 -97.11982154
rfemur  -43.71149826 18.23929977 -4.311019897
rtibia  -0 0 39.02939987
rfoot  -0 -0.8269979954 -8.077300072
rtoes  5.373923086 19.29304026 -105.8922705
lfemur  -8.344120026 11.7531004 -13.65450001
ltibia  -0 0 57.73379898
lfoot  4.424558027e-032 -3.976490021 -4.210080147
ltoes  -4.250644065 -19.5611806 -102.515957
186
root  1.50331775 38.89733262 -3.683177693 -0.4459991455 -20.99099731 6.56300354
lowerback  15.79049969 -0.7470269799 -8.358799934
upperback  6.792069912 -2.285779953 -1.030429959
thorax  -1.298410058 -1.313420057 4.000699997
lowerneck  0.7644770145 -1.398460031 -11.08170033
upperneck  7.707489967 -2.424900055 10.43840027
head  2.395090103 -1.253559947 4.945240021
lclavicle  0 -9.442270133e-015 7.951389973e-016
lhumerus  17.92980003 -20.5807991 80.93419647
lradius  1.818399845e-031 -3.026923527e-031 120.9950027
lwrist  -7.062250077e-031 -0 16.46109962
lhand  -1.496451383e-031 -27.76390076 20.11240005
lfingers  90 7.125020027 -90
lthumb  89.89689403 5.08795885 91.16245106
rclavicle  0 -9.442270133e-015 7.951389973e-016
rhumerus  15.08749962 9.454669952 -78.31680298
rradius  -2.262248284e-031 2.711286915e-031 129.8410034
rwrist  7.062250077e-031 -1.765562519e-031 -13.99569988
rhand  -7.920061211e-032 -33.2840004 9.303460121
rfingers  -90 -7.125020027 -90
rthumb  -92.93752616 -24.25625642 -97.11982154
rfemur  -43.78139877 16.91939926 -2.527080059
rtibia  -0 0 41.88819885
rfoot  -0 -1.813740015 -9.030449867
rtoes  5.373923086 19.29304026 -105.8922705
lfemur  -10.04139996 11.15159988 -13.39960003
ltibia  -0 0 58.8689003
lfoot  4.422079856e-032 -3.484149933 -5.527800083
ltoes  -4.250644065 -19.5611806 -102.515957
